
<?xml version="1.0" encoding="UTF-8" standalone="no"?>
<svg
   xmlns:dc="http://purl.org/dc/elements/1.1/"
   xmlns:cc="http://creativecommons.org/ns#"
   xmlns:rdf="http://www.w3.org/1999/02/22-rdf-syntax-ns#"
   xmlns:svg="http://www.w3.org/2000/svg"
   xmlns="http://www.w3.org/2000/svg"
   viewBox="0 0 1440 1440"
   height="1440"
   width="1440"
   xml:space="preserve"
   id="svg2"
   version="1.1"><metadata
     id="metadata8"><rdf:RDF><cc:Work
         rdf:about=""><dc:format>image/svg+xml</dc:format><dc:type
           rdf:resource="http://purl.org/dc/dcmitype/StillImage" /></cc:Work></rdf:RDF></metadata><defs
     id="defs6"><clipPath
       id="clipPath18"
       clipPathUnits="userSpaceOnUse"><path
         id="path16"
         d="M 0,1080 H 1080 V 0 H 0 Z" /></clipPath></defs><g
     transform="matrix(1.3333333,0,0,-1.3333333,0,1440)"
     id="g10"><g
       id="g12"><g
         clip-path="url(#clipPath18)"
         id="g14"><g
           transform="translate(360.7095,556.0317)"
           id="g20"><path
             id="path22"
             style="fill:#4d86c6;fill-opacity:1;fill-rule:nonzero;stroke:none"
             d="m 0,0 c -0.972,-97.218 -79.628,-170.825 -171.561,-170.331 -94.373,0.507 -170.624,76.845 -169.965,171.753 0.648,93.466 75.8,169.683 171.38,169.333 C -75.79,170.409 -0.771,94.918 0,0" /></g><g
           transform="translate(876.582,574.2876)"
           id="g24"><path
             id="path26"
             style="fill:#74aff0;fill-opacity:1;fill-rule:nonzero;stroke:none"
             d="m 0,0 c -12.932,-21.033 -25.316,-40.969 -37.455,-61.053 -3.31,-5.476 -7.402,-9.43 -13.934,-10.01 -2.044,-0.182 -5.3,-0.594 -5.351,2.421 -0.046,2.699 -0.538,6.929 4.61,6.48 2.46,-0.213 4.074,1.098 5.311,3.062 2.039,3.238 4.076,6.479 6.159,9.689 1.005,1.548 0.766,3.046 0.378,4.756 -3.246,14.254 -6.413,28.526 -9.523,42.809 -0.424,1.95 -2.531,5.012 1.452,5.303 2.939,0.214 6.964,2.13 7.956,-3.748 1.848,-10.961 4.471,-21.792 6.752,-32.681 0.266,-1.268 0.296,-2.611 1.802,-3.743 6.667,10.993 13.74,21.689 19.749,32.953 3.246,6.084 7.245,8.516 13.745,7.405 5.469,-0.935 8.482,1.08 8.728,6.855 0.069,1.635 0.724,3.238 0.995,4.874 0.836,5.058 3.23,6.531 8.24,5.321 2.618,-0.631 1.815,-2.432 1.57,-3.916 -0.541,-3.275 -1.124,-6.564 -2.025,-9.753 -0.795,-2.818 0.183,-3.64 2.826,-3.391 0.992,0.094 2.017,0.131 2.994,-0.016 1.716,-0.258 4.611,1.072 4.326,-2.329 -0.22,-2.623 -0.077,-5.666 -4.443,-5.749 -8.364,-0.16 -8.407,-0.361 -10.097,-8.274 -1.562,-7.307 -3.027,-14.633 -4.495,-21.959 -1.158,-5.775 0.978,-7.459 6.709,-5.919 1.619,0.435 3.916,4.11 5.426,0.032 1.204,-3.252 1.603,-6.613 -3.149,-7.686 -4.337,-0.979 -8.547,-2.701 -13.157,-1.143 -5.18,1.751 -7.423,5.356 -6.269,10.765 2.045,9.584 4.157,19.155 6.209,28.738 0.611,2.856 1.454,5.922 -3.365,5.55 C 0.258,-4.544 0.639,-2.35 0,0" /></g><g
           transform="translate(943.6494,571.8862)"
           id="g28"><path
             id="path30"
             style="fill:#74aff0;fill-opacity:1;fill-rule:nonzero;stroke:none"
             d="m 0,0 c 4.163,3.257 8.396,5.376 13.166,6.501 7.459,1.76 13.461,-0.567 17.008,-7.433 1.584,-3.068 2.506,-0.935 3.488,0.023 4.053,3.951 8.813,6.317 14.373,7.471 10.169,2.109 17.304,-3.312 17.086,-13.736 -0.182,-8.672 -2.849,-16.992 -4.527,-25.447 -0.582,-2.931 -1.694,-5.826 -1.807,-8.767 -0.195,-5.019 -2.809,-5.993 -7.155,-5.612 -2.57,0.226 -3.488,0.666 -2.832,3.55 2.172,9.545 4.079,19.151 5.99,28.753 0.385,1.934 0.621,3.979 0.444,5.928 -0.509,5.606 -4.641,8.319 -10.417,6.367 -7.857,-2.655 -13.491,-7.831 -15.377,-16.243 -1.815,-8.095 -3.383,-16.245 -5.149,-24.352 -0.747,-3.428 -6.037,-5.563 -8.975,-3.681 -1.718,1.1 -0.731,2.65 -0.452,4.045 1.951,9.761 3.888,19.526 5.877,29.279 0.761,3.725 1.127,7.691 -2.176,10.084 -3.54,2.563 -7.682,1.493 -11.373,-0.416 -9.505,-4.917 -12.254,-13.811 -13.805,-23.479 -0.894,-5.564 -2.065,-11.09 -3.306,-16.589 -0.626,-2.777 -6.846,-4.585 -9.049,-2.802 -1.167,0.945 -0.592,2.139 -0.363,3.22 3.126,14.771 6.413,29.511 9.335,44.322 0.753,3.818 2.134,5.204 6.154,5.181 C 0.955,6.138 -1.469,2.402 0,0" /></g><g
           transform="translate(425.9077,565.8921)"
           id="g32"><path
             id="path34"
             style="fill:#74aff0;fill-opacity:1;fill-rule:nonzero;stroke:none"
             d="m 0,0 c 4.833,0 9.668,0.106 14.496,-0.041 2.765,-0.084 4.196,0.69 4.746,3.691 1.405,7.675 3.389,15.244 4.741,22.926 0.961,5.46 4.949,3.478 7.809,3.394 3.871,-0.114 1.901,-2.996 1.524,-4.805 -4.369,-20.974 -8.837,-41.927 -13.192,-62.904 -1.123,-5.409 -5.275,-3.042 -8.049,-2.966 -3.462,0.095 -1.557,2.919 -1.232,4.581 1.499,7.661 3.015,15.323 4.779,22.925 0.695,2.996 0.3,4.321 -3.119,4.278 -9.996,-0.127 -19.996,-0.12 -29.992,0.009 -2.716,0.036 -3.892,-1.069 -4.4,-3.586 -1.611,-7.978 -3.331,-15.934 -5.006,-23.899 -0.834,-3.963 -5.544,-6.287 -8.969,-4.298 -2.15,1.249 -1.021,3.358 -0.7,4.964 1.883,9.444 3.917,18.859 5.96,28.272 2.467,11.362 5.245,22.666 7.395,34.087 1.127,5.983 5.371,3.401 8.141,3.273 3.995,-0.185 1.348,-3.413 1.077,-4.991 -1.151,-6.707 -2.433,-13.422 -4.243,-19.974 -1.221,-4.418 0.333,-5.209 4.24,-5.012 4.654,0.235 9.328,0.055 13.994,0.055 z" /></g><g
           transform="translate(695.8242,525.5488)"
           id="g36"><path
             id="path38"
             style="fill:#74aff0;fill-opacity:1;fill-rule:nonzero;stroke:none"
             d="m 0,0 c 12.639,20.06 24.955,39.608 37.271,59.157 1.597,2.534 3.408,4.962 4.732,7.631 1.705,3.441 4.389,4.086 7.817,3.691 3.7,-0.425 2.974,-3.422 3.433,-5.674 4.143,-20.329 8.252,-40.666 12.336,-61.007 0.318,-1.586 1.823,-4.198 -1.241,-4.157 -2.794,0.038 -6.988,-2.585 -8.228,2.505 -1.179,4.833 -2.123,9.73 -2.986,14.631 -0.49,2.781 -1.794,3.917 -4.696,3.855 -7.158,-0.153 -14.324,-0.153 -21.482,0.01 -2.709,0.061 -4.27,-1.01 -5.579,-3.254 C 19.029,13.365 15.921,9.709 14.08,5.485 11.25,-1.006 6.492,-1.425 0,0" /></g><g
           transform="translate(639.8965,571.043)"
           id="g40"><path
             id="path42"
             style="fill:#74aff0;fill-opacity:1;fill-rule:nonzero;stroke:none"
             d="M 0,0 C 5.013,3.355 9.486,6.019 14.767,7.256 25.617,9.798 33.095,4.31 33.09,-6.679 33.086,-17.27 29.392,-27.235 27.685,-37.54 c -0.245,-1.475 -0.477,-2.954 -0.809,-4.41 -0.796,-3.5 -6.483,-5.933 -9.353,-3.937 -1.627,1.132 -0.516,2.825 -0.266,4.109 1.653,8.475 3.535,16.906 5.238,25.373 0.424,2.105 0.629,4.285 0.65,6.433 0.071,7.72 -4.519,10.971 -11.773,7.986 -8.025,-3.301 -14.226,-8.226 -15.594,-17.785 -1.102,-7.706 -3.262,-15.256 -4.779,-22.911 -1.043,-5.267 -5.069,-3.221 -7.973,-3.244 -3.023,-0.024 -1.949,2.555 -1.612,4.144 4.551,21.445 9.158,42.878 13.816,64.3 0.466,2.14 0.529,4.523 4.021,4.599 5.946,0.129 6.286,-0.009 5.082,-5.952 C 2.954,14.359 1.549,7.559 0,0" /></g><g
           transform="translate(1056.4521,547.2349)"
           id="g44"><path
             id="path46"
             style="fill:#74aff0;fill-opacity:1;fill-rule:nonzero;stroke:none"
             d="m 0,0 c -9.061,1.054 -19.349,0.219 -29.621,0.436 -2.874,0.061 -4.192,-1.01 -4.042,-4.14 0.373,-7.796 8.56,-13.327 17.141,-11.281 4.298,1.025 8.273,2.958 10.961,6.5 2.958,3.897 5.57,0.9 8.276,0.043 0.976,-0.308 0.549,-1.299 0.233,-2.118 -2.79,-7.25 -18.478,-14.149 -28.729,-12.601 -9.35,1.413 -17.021,9.626 -17.686,18.937 -1.206,16.869 11.35,32.369 28.057,35.256 5.553,0.96 10.632,0.494 15.379,-2.221 C 7.891,24.279 11.925,14.892 10.242,5.728 9.281,0.495 8.473,-0.018 0,0" /></g><g
           transform="translate(490.0186,547.7148)"
           id="g48"><path
             id="path50"
             style="fill:#74aff0;fill-opacity:1;fill-rule:nonzero;stroke:none"
             d="m 0,0 c -5.823,0 -11.646,-0.009 -17.468,0.003 -4.367,0.01 -5.322,-2.228 -4.278,-6.105 2.42,-8.987 12.718,-12.553 21.985,-7.465 2.329,1.279 4.576,2.768 6.197,4.949 0.851,1.146 1.667,2.1 3.269,1.488 1.849,-0.707 4.668,-0.924 5.316,-2.224 0.874,-1.758 -1.434,-3.45 -2.839,-4.812 -8.195,-7.95 -17.846,-11.551 -29.129,-8.598 -10.312,2.701 -16.14,13.464 -14.741,24.063 1.934,14.654 14.586,27.144 28.448,29.49 C 11.122,33.22 25.589,22.373 21.517,2.764 21.051,0.516 19.545,0.007 17.469,0.033 11.647,0.105 5.823,0.058 0,0.058 Z" /></g><g
           transform="translate(560.9463,560.186)"
           id="g52"><path
             id="path54"
             style="fill:#74aff0;fill-opacity:1;fill-rule:nonzero;stroke:none"
             d="m 0,0 c -1.125,-5.439 -2.679,-13.073 -4.294,-20.694 -0.477,-2.253 -0.86,-4.21 0.217,-6.66 1.1,-2.503 0.415,-6.114 -2.04,-7.483 -2.335,-1.302 -5.837,-1.158 -7.506,1.852 -1.488,2.684 -2.871,2.241 -5.024,0.994 -4.833,-2.799 -10.13,-4.22 -15.717,-4.228 -6.07,-0.009 -11.141,2.107 -13.939,7.847 -2.982,6.119 -1.355,11.798 2.685,16.716 4.441,5.408 10.561,8.023 17.462,8.456 4.963,0.311 9.974,0.554 14.898,-0.692 1.275,-0.321 2.486,-0.59 3.211,1.237 2.708,6.821 -1.256,13.124 -8.658,13.442 -5.704,0.245 -10.675,-2.061 -15.575,-4.631 -1.257,-0.659 -3.066,-2.604 -3.932,0.201 -0.576,1.866 -3.15,4.139 0.222,5.979 7.998,4.364 16.18,7.81 25.63,5.594 C -4.209,16.017 0.095,10.625 0,0" /></g><g
           transform="translate(785.498,570.4111)"
           id="g56"><path
             id="path58"
             style="fill:#74aff0;fill-opacity:1;fill-rule:nonzero;stroke:none"
             d="m 0,0 c 5.184,4.404 10.697,6.936 16.871,8.172 10.275,2.059 16.663,-3.035 16.745,-13.427 0.077,-9.607 -3.22,-18.635 -4.723,-27.969 -0.396,-2.458 -1.038,-4.876 -1.504,-7.323 -0.85,-4.453 -4.596,-6.585 -8.622,-4.703 -2.561,1.197 -1.308,3.5 -0.928,5.23 2.171,9.893 4.615,19.728 5.931,29.791 1.016,7.781 -2.692,11.502 -10.05,9.244 -9.012,-2.766 -16.001,-7.758 -17.573,-18.216 -1.156,-7.701 -3.28,-15.253 -4.819,-22.903 -1.061,-5.275 -5.14,-3.334 -7.981,-3.135 -3.414,0.239 -1.501,2.904 -1.148,4.61 3.066,14.8 6.178,29.592 9.274,44.386 0.648,3.1 6.924,5.655 8.875,3.368 C 1.983,5.208 -0.121,2.816 0,0" /></g><g
           transform="translate(615.6191,535.585)"
           id="g60"><path
             id="path62"
             style="fill:#74aff0;fill-opacity:1;fill-rule:nonzero;stroke:none"
             d="m 0,0 c 2.278,-7.652 1.842,-8.464 -5.226,-10.282 -1.765,-0.455 -3.557,-0.946 -5.362,-1.082 -7.213,-0.548 -13.387,4.025 -11.302,12.062 2.371,9.137 4.121,18.441 5.959,27.708 0.542,2.735 1.841,6.365 -3.466,5.98 -1.416,-0.103 -2.399,0.776 -1.832,2.166 0.798,1.963 -0.341,5.811 2.873,5.525 5.65,-0.503 5.927,3.184 6.692,6.864 0.371,1.786 0.755,3.571 1.055,5.37 0.796,4.778 3.722,6.479 8.418,5.047 2.507,-0.766 1.64,-2.662 1.422,-4.085 -0.501,-3.271 -1.197,-6.529 -2.08,-9.718 -0.705,-2.548 0.164,-3.364 2.602,-3.21 1.325,0.084 2.661,0.015 3.991,-0.009 1.818,-0.032 3.998,0.289 3.609,-2.629 C 7.041,37.369 7.458,34.661 3.716,34.286 -5.556,33.358 -5.57,33.25 -7.474,24.294 -8.921,17.48 -10.267,10.646 -11.703,3.83 -12.853,-1.619 -10.81,-3.502 -5.307,-1.911 -3.567,-1.408 -1.891,-0.688 0,0" /></g><g
           transform="translate(583.9463,597.9766)"
           id="g64"><path
             id="path66"
             style="fill:#74aff0;fill-opacity:1;fill-rule:nonzero;stroke:none"
             d="m 0,0 c 3.903,0.535 5.286,-0.101 4.301,-4.459 -4.13,-18.265 -7.82,-36.629 -11.581,-54.975 -0.983,-4.786 0.324,-6.078 5.211,-5.233 2.185,0.377 4.447,1.482 4.727,-2.016 0.224,-2.786 -0.156,-5.421 -3.639,-6.041 -2.285,-0.407 -4.572,-0.929 -6.876,-1.069 -7.207,-0.437 -11.201,4.828 -9.55,12.564 3.288,15.4 6.629,30.789 9.959,46.18 0.771,3.563 1.901,7.083 2.298,10.685 C -4.753,-0.75 -3.329,0.854 0,0" /></g><g
           transform="translate(908.8633,525.0859)"
           id="g68"><path
             id="path70"
             style="fill:#74aff0;fill-opacity:1;fill-rule:nonzero;stroke:none"
             d="m 0,0 c -4.535,-0.783 -5.431,0.83 -4.494,4.929 3.354,14.678 6.61,29.387 9.433,44.175 1.115,5.838 5.197,3.729 8.067,3.543 3.883,-0.251 1.473,-3.236 1.125,-4.954 C 11.173,33.099 8.025,18.543 5.092,3.943 4.445,0.724 3.12,-0.916 0,0" /></g><g
           transform="translate(923.1201,597.9272)"
           id="g72"><path
             id="path74"
             style="fill:#78afee;fill-opacity:1;fill-rule:nonzero;stroke:none"
             d="m 0,0 c 4.598,0.666 5.138,-0.906 4.311,-4.447 -1.802,-7.727 -2.531,-8.65 -8.131,-7.701 -0.818,0.138 -1.893,0.105 -2.104,0.958 -0.843,3.401 0.738,6.456 1.656,9.587 C -3.437,1.235 -0.973,-0.291 0,0" /></g><g
           transform="translate(147.0293,615.0083)"
           id="g76"><path
             id="path78"
             style="fill:#f3f6fb;fill-opacity:1;fill-rule:nonzero;stroke:none"
             d="m 0,0 c 8.543,-1.255 17.099,-2.312 24.954,-6.422 5.79,-3.03 11.354,-6.36 15.902,-11.042 2.2,-2.265 3.341,-1.945 5.502,0.057 10.304,9.546 22.36,15.415 36.534,16.489 5.445,0.054 11.133,2.353 16.128,-1.749 1.376,-1.13 3.215,-2.048 1.992,-4.364 -20.219,-20.3 -40.473,-40.565 -60.608,-60.948 -2.292,-2.32 -3.289,-0.773 -4.714,0.651 -6.836,6.831 -13.535,13.807 -20.569,20.426 -12.665,11.918 -30.959,8.983 -38.128,-5.927 -4.215,-8.767 -2.681,-18.863 4.517,-26.322 9.369,-9.709 19.01,-19.158 28.548,-28.706 8.36,-8.368 16.879,-16.586 25.031,-25.151 2.717,-2.854 4.072,-2.372 6.581,0.154 32.409,32.622 64.931,65.132 97.422,97.672 4.084,4.091 4.078,4.096 6.55,-0.943 10.939,-22.308 6.877,-51.158 -10.48,-68.784 -29.341,-29.796 -59.075,-59.205 -88.572,-88.847 -2.215,-2.226 -3.601,-2.564 -6.001,-0.15 -29.253,29.416 -58.954,58.396 -87.832,88.173 -28.54,29.428 -20.902,77.573 14.775,97.533 1.155,0.646 2.267,1.371 3.4,2.059 4.349,4.718 10.403,5.462 16.148,6.232 C -8.721,0.654 -4.259,2.89 0,0" /></g><g
           transform="translate(248.0415,607.9771)"
           id="g80"><path
             id="path82"
             style="fill:#bedaf2;fill-opacity:1;fill-rule:nonzero;stroke:none"
             d="m 0,0 c -1.889,3.818 -5.293,5.448 -9.226,5.917 -2.93,0.35 -5.926,0.15 -8.894,0.195 2.59,1.605 5.565,0.37 8.798,1.275 -3.034,4.921 -6.916,9.246 -8.026,15.102 -2.439,12.876 1.342,23.525 11.738,31.226 9.607,7.117 20.465,7.754 31.071,2.376 C 36.497,50.496 42.05,40.885 41.896,28.574 41.665,10.054 24.338,-3.188 5.237,0.225 3.394,0.554 1.709,1.089 0,0" /></g><g
           transform="translate(147.0293,615.0083)"
           id="g84"><path
             id="path86"
             style="fill:#4f6e8c;fill-opacity:1;fill-rule:nonzero;stroke:none"
             d="m 0,0 c -10.049,-0.336 -19.834,-1.925 -29.066,-6.141 -12.025,2.423 -21.362,14.429 -22.03,26.76 -0.797,14.716 9.674,27.894 22.934,30.834 C -10.923,55.274 4.756,44.856 8.12,28.357 10.141,18.443 7.388,10.189 1.252,2.627 0.658,1.895 0.409,0.882 0,0" /></g><g
           transform="translate(741.543,582.9497)"
           id="g88"><path
             id="path90"
             style="fill:#fbfdfd;fill-opacity:1;fill-rule:nonzero;stroke:none"
             d="m 0,0 c 1.964,-9.8 3.577,-17.919 5.228,-26.032 0.399,-1.964 -0.376,-2.791 -2.319,-2.783 -5.988,0.022 -11.977,0.017 -17.967,0.017 -1.707,-0.001 -2.687,0.468 -1.525,2.325 C -11.325,-18.073 -6.062,-9.676 0,0" /></g><g
           transform="translate(1044.6055,570.8794)"
           id="g92"><path
             id="path94"
             style="fill:#fafdfd;fill-opacity:1;fill-rule:nonzero;stroke:none"
             d="m 0,0 c 6.799,-0.083 12.218,-4.774 13.126,-11.28 0.388,-2.78 -0.202,-4.47 -3.518,-4.433 -8.793,0.096 -17.587,0.059 -26.38,0.009 -3.192,-0.018 -3.098,1.371 -2.026,3.742 C -15.855,-5.458 -7.271,0.089 0,0" /></g><g
           transform="translate(488.2124,570.8555)"
           id="g96"><path
             id="path98"
             style="fill:#fafdfd;fill-opacity:1;fill-rule:nonzero;stroke:none"
             d="m 0,0 c 8.565,0.127 14.61,-5.233 14.873,-12.073 0.095,-2.463 -0.55,-3.657 -3.273,-3.626 -8.947,0.105 -17.897,0.059 -26.845,0.028 -2.444,-0.008 -3.504,0.71 -2.189,3.237 C -13.527,-4.92 -7.268,-0.937 0,0" /></g><g
           transform="translate(538.3164,550.2368)"
           id="g100"><path
             id="path102"
             style="fill:#fbfdfd;fill-opacity:1;fill-rule:nonzero;stroke:none"
             d="m 0,0 c 1.323,-0.075 2.658,-0.062 3.966,-0.245 2.238,-0.314 5.675,-0.105 6.081,-2.184 0.515,-2.629 0.13,-5.907 -2.091,-8.334 -4.618,-5.047 -10.268,-7.648 -17.147,-7.561 -3.577,0.045 -6.74,0.953 -7.835,4.741 -1.087,3.757 -0.356,7.217 2.943,9.805 C -9.917,-0.509 -5.062,0.091 0,0" /></g></g></g></g></svg>
